<?xml version="1.0" encoding="utf-8"?><svg viewBox="0 0 40 40" xmlns="http://www.w3.org/2000/svg" xmlns:xlink="http://www.w3.org/1999/xlink"><style>:root>svg{display:none}:root>svg:target{display:block}</style><svg fill="none" viewBox="0 0 40 40" id="benefit-icon" xmlns="http://www.w3.org/2000/svg"><g clip-path="url(#aa)"><path d="M36.667 28.337a10.003 10.003 0 0 1-7.855 9.766l-1.063-3.19a6.672 6.672 0 0 0 4.693-3.246h-4.108a3.333 3.333 0 0 1-3.333-3.334v-6.666a3.333 3.333 0 0 1 3.333-3.334h4.897a13.336 13.336 0 0 0-26.46 0h4.896a3.333 3.333 0 0 1 3.334 3.334v6.666a3.333 3.333 0 0 1-3.334 3.334h-5a3.333 3.333 0 0 1-3.333-3.334V20c0-9.205 7.462-16.667 16.667-16.667 9.205 0 16.666 7.462 16.666 16.667v8.337Zm-3.333-.004v-6.666h-5v6.666h5ZM6.667 21.667v6.666h5v-6.666h-5Z" fill="#F4683F"/></g><defs><clipPath id="aa"><path fill="#fff" d="M0 0h40v40H0z"/></clipPath></defs></svg><svg fill="none" viewBox="0 0 12 8" id="chevron-down" xmlns="http://www.w3.org/2000/svg"><path d="M6.093 4.884 10.218.76l1.178 1.178-5.303 5.304L.79 1.937 1.968.76l4.125 4.125Z" fill="#fff"/></svg><svg fill="none" viewBox="0 0 10 17" id="chevron-next" xmlns="http://www.w3.org/2000/svg"><path d="M6.326 8.86.14 2.673 1.906.905 9.861 8.86l-7.955 7.956L.14 15.047 6.326 8.86Z" fill="#fff"/></svg><svg fill="none" viewBox="0 0 26 26" id="favorite" xmlns="http://www.w3.org/2000/svg"><g clip-path="url(#da)"><path d="M13 4.906a6.498 6.498 0 0 1 8.93.247 6.5 6.5 0 0 1 .255 8.923l-9.187 9.2-9.184-9.2A6.5 6.5 0 0 1 13 4.906Zm7.395 1.778a4.331 4.331 0 0 0-5.947-.166L13 7.816 11.555 6.52a4.332 4.332 0 0 0-5.952.167 4.333 4.333 0 0 0-.208 5.906L13 20.209l7.605-7.616a4.334 4.334 0 0 0-.209-5.909Z" fill="#fff"/></g><defs><clipPath id="da"><path fill="#fff" d="M0 0h26v26H0z"/></clipPath></defs></svg><svg fill="none" viewBox="0 0 27 26" id="instagram" xmlns="http://www.w3.org/2000/svg"><g clip-path="url(#ea)"><path d="M13.38 9.83a3.17 3.17 0 1 0 0 6.34 3.17 3.17 0 0 0 0-6.34Zm0-2.112a5.282 5.282 0 1 1 0 10.564 5.282 5.282 0 0 1 0-10.564Zm6.866-.264a1.32 1.32 0 1 1-2.641 0 1.32 1.32 0 0 1 2.641 0ZM13.38 4.549c-2.614 0-3.04.007-4.256.061-.828.04-1.384.15-1.9.351a3.05 3.05 0 0 0-1.14.743c-.33.32-.585.71-.744 1.14-.2.518-.312 1.073-.35 1.9-.055 1.166-.06 1.574-.06 4.256 0 2.613.006 3.04.06 4.256.04.827.15 1.384.35 1.898.18.46.39.79.742 1.141.356.355.686.567 1.14.743.522.201 1.078.313 1.902.351 1.166.055 1.574.062 4.256.062 2.613 0 3.04-.008 4.256-.062.826-.039 1.383-.15 1.898-.35.458-.178.79-.39 1.141-.74.356-.357.568-.688.744-1.142.2-.52.312-1.077.35-1.901.055-1.166.062-1.574.062-4.256 0-2.614-.008-3.04-.062-4.256-.039-.826-.15-1.384-.35-1.9a3.074 3.074 0 0 0-.743-1.14c-.32-.331-.71-.585-1.14-.744-.518-.2-1.074-.312-1.9-.35-1.166-.055-1.574-.061-4.256-.061Zm0-2.113c2.87 0 3.228.01 4.354.064 1.125.053 1.891.229 2.565.49a5.15 5.15 0 0 1 1.872 1.219 5.184 5.184 0 0 1 1.218 1.872c.26.673.438 1.44.491 2.565.05 1.126.063 1.484.063 4.354s-.01 3.228-.063 4.354c-.053 1.125-.23 1.891-.491 2.565a5.159 5.159 0 0 1-1.218 1.872 5.192 5.192 0 0 1-1.872 1.218c-.673.26-1.44.438-2.565.49-1.126.05-1.484.064-4.354.064s-3.228-.01-4.354-.063c-1.125-.053-1.891-.23-2.565-.491a5.165 5.165 0 0 1-1.872-1.218 5.18 5.18 0 0 1-1.218-1.872c-.262-.673-.438-1.44-.491-2.565-.05-1.126-.064-1.484-.064-4.354s.011-3.228.064-4.354c.053-1.127.229-1.891.491-2.565a5.155 5.155 0 0 1 1.218-1.872A5.173 5.173 0 0 1 6.461 2.99c.674-.262 1.439-.438 2.565-.491 1.126-.05 1.484-.064 4.354-.064Z" fill="#C0C2D7"/></g><defs><clipPath id="ea"><path fill="#fff" transform="translate(.705 .324)" d="M0 0h25.352v25.352H0z"/></clipPath></defs></svg><svg fill="none" viewBox="0 0 14 18" id="map-locator" xmlns="http://www.w3.org/2000/svg"><path d="M7 0A6.192 6.192 0 0 0 .808 6.192c0 2.607 3.6 8.615 5.31 11.322a1.046 1.046 0 0 0 1.765 0c1.71-2.709 5.309-8.715 5.309-11.322A6.192 6.192 0 0 0 7 0Zm0 9.973a3.502 3.502 0 1 1 0-7.004 3.502 3.502 0 0 1 0 7.004Z" fill="#F4683F"/></svg><svg fill="none" viewBox="0 0 20 20" id="phone-icon" xmlns="http://www.w3.org/2000/svg"><g clip-path="url(#ga)"><path d="M17.5 13.683v2.947a.833.833 0 0 1-.775.832c-.364.025-.662.038-.892.038C8.47 17.5 2.5 11.53 2.5 4.167c0-.23.013-.528.038-.892A.833.833 0 0 1 3.37 2.5h2.947a.417.417 0 0 1 .415.375c.019.192.036.344.053.46.166 1.156.505 2.28 1.007 3.334a.38.38 0 0 1-.123.473l-.488.348c-.765.547-1.062 1.564-.568 2.364a10.874 10.874 0 0 0 3.534 3.534c.8.494 1.817.197 2.364-.568l.347-.485a.385.385 0 0 1 .477-.124c1.054.5 2.178.84 3.333 1.004.116.017.269.035.459.053a.417.417 0 0 1 .373.415Z" fill="#fff"/></g><defs><clipPath id="ga"><path fill="#fff" d="M0 0h20v20H0z"/></clipPath></defs></svg><svg fill="none" viewBox="0 0 40 40" id="rating-icon" xmlns="http://www.w3.org/2000/svg"><g clip-path="url(#ha)"><path d="m20 30.433-11.755 6.58L10.87 23.8.98 14.653l13.378-1.586L20 .833l5.643 12.234 13.379 1.586L29.13 23.8l2.625 13.213L20 30.433Zm0-3.82 7.078 3.962-1.581-7.955 5.955-5.508-8.055-.955L20 8.792l-3.396 7.366-8.055.954 5.955 5.508-1.582 7.955L20 26.613Z" fill="#F4683F"/></g><defs><clipPath id="ha"><path fill="#fff" d="M0 0h40v40H0z"/></clipPath></defs></svg><svg fill="none" viewBox="0 0 24 24" id="search-icon" xmlns="http://www.w3.org/2000/svg"><g clip-path="url(#ia)"><path d="m18.033 16.617 4.283 4.282-1.415 1.415-4.282-4.283A8.96 8.96 0 0 1 11.002 20c-4.968 0-9-4.032-9-9s4.032-9 9-9 9 4.032 9 9a8.96 8.96 0 0 1-1.969 5.617Zm-2.006-.742A6.977 6.977 0 0 0 18.002 11c0-3.868-3.133-7-7-7-3.868 0-7 3.132-7 7 0 3.867 3.132 7 7 7a6.977 6.977 0 0 0 4.875-1.975l.15-.15Z" fill="#fff"/></g><defs><clipPath id="ia"><path fill="#fff" d="M0 0h24v24H0z"/></clipPath></defs></svg><svg fill="none" viewBox="0 0 40 40" id="support-icon" xmlns="http://www.w3.org/2000/svg"><g clip-path="url(#ja)"><path d="m29.734 26.098.294.295.296-.295a3.753 3.753 0 0 1 5.304 0 3.75 3.75 0 0 1 0 5.304L30.028 37l-5.597-5.598a3.75 3.75 0 0 1 5.303-5.304ZM20 23.333v3.334a10 10 0 0 0-10 10H6.666A13.334 13.334 0 0 1 19.583 23.34l.416-.007Zm0-21.666c5.525 0 10 4.475 10 10a9.996 9.996 0 0 1-9.625 9.993l-.375.007c-5.525 0-10-4.475-10-10a9.997 9.997 0 0 1 9.625-9.994L20 1.667ZM20 5a6.665 6.665 0 0 0-6.666 6.667 6.665 6.665 0 0 0 6.666 6.666 6.665 6.665 0 0 0 6.667-6.666A6.665 6.665 0 0 0 19.999 5Z" fill="#F4683F"/></g><defs><clipPath id="ja"><path fill="#fff" d="M0 0h40v40H0z"/></clipPath></defs></svg><svg fill="none" viewBox="0 0 20 18" id="telegram" xmlns="http://www.w3.org/2000/svg"><path fill-rule="evenodd" clip-rule="evenodd" d="M18.926.056c-.107.03-2.12.843-4.473 1.805L5.467 5.536C2.877 6.596.66 7.513.54 7.576c-.237.123-.489.384-.528.546-.065.27.117.612.438.826.216.145 4.561 1.694 4.67 1.666.037-.01 2.62-1.708 5.74-3.774s5.723-3.774 5.782-3.796c.151-.055.353-.027.403.056.111.185.32-.019-6.822 6.673-2.206 2.067-2.365 2.225-2.303 2.286a542.97 542.97 0 0 0 3.66 2.933c2.684 2.14 3.644 2.884 3.79 2.937.284.103.62.094.86-.023.184-.09.469-.366.56-.543C16.835 17.276 20 .683 20 .545c-.002-.171-.143-.412-.283-.481-.166-.082-.515-.086-.79-.008Z" fill="#C0C2D7"/></svg><svg fill="none" viewBox="0 0 24 23" id="whatsapp" xmlns="http://www.w3.org/2000/svg"><path fill-rule="evenodd" clip-rule="evenodd" d="M11.073.069C5.756.722 1.577 4.96 1.027 10.259c-.082.785-.032 2.272.1 3.022.21 1.188.557 2.234 1.097 3.302l.272.537-.809 2.934C1.243 21.668.886 22.994.895 23c.008.006 1.362-.342 3.009-.774 2.396-.63 3.017-.777 3.114-.74.066.025.38.163.7.306 1.034.467 2.121.776 3.265.93.794.106 2.19.106 2.962-.002 2.538-.353 4.805-1.468 6.592-3.242a10.776 10.776 0 0 0 2.147-2.933 11.896 11.896 0 0 0 1.119-3.378c.122-.702.122-2.766 0-3.502a11.18 11.18 0 0 0-1.076-3.335C21.168 3.207 18.29.98 14.85.236c-1.072-.232-2.672-.303-3.777-.167Zm3.017 1.986c1.385.254 2.533.714 3.67 1.469 1.938 1.288 3.366 3.29 3.93 5.51.414 1.63.382 3.482-.089 5.05a9.56 9.56 0 0 1-4.948 5.822c-1.38.67-2.656.963-4.204.963-1.775 0-3.348-.428-4.953-1.348l-.27-.155-1.778.464c-.977.255-1.784.457-1.793.448-.009-.01.192-.77.446-1.69.254-.92.464-1.706.466-1.747.002-.041-.123-.28-.278-.53-2.277-3.684-1.68-8.54 1.427-11.613C7.26 3.17 9.218 2.231 11.41 1.965c.592-.072 2.069-.023 2.68.09ZM7.942 6.24c-.28.138-.79.736-1.003 1.177-.419.866-.41 1.957.023 2.968.533 1.241 1.928 3.004 3.304 4.177.965.822 1.77 1.303 2.955 1.765 1.21.472 1.442.527 2.245.526.632 0 .732-.012 1.025-.122.483-.18.844-.409 1.203-.76.278-.272.335-.358.426-.647.113-.362.178-.944.128-1.145-.027-.105-.163-.19-.85-.532-1.256-.625-1.762-.84-1.978-.84-.176 0-.206.02-.42.3-.487.636-.934 1.128-1.05 1.158-.14.034-.414-.065-1.048-.382a7.418 7.418 0 0 1-2.582-2.112c-.391-.498-.744-1.066-.744-1.198 0-.057.182-.339.404-.626.434-.564.562-.774.562-.93 0-.054-.095-.32-.21-.59-.115-.27-.347-.826-.516-1.235-.21-.507-.356-.793-.462-.9L9.2 6.139h-.524c-.44 0-.558.017-.734.103Z" fill="#C0C2D7"/></svg><svg fill="none" viewBox="0 0 40 40" id="work-icon" xmlns="http://www.w3.org/2000/svg"><g clip-path="url(#ma)"><path d="M33.333 3.333C34.253 3.333 35 4.08 35 5v6.262l-3.333 3.333V6.667H8.333v26.666h23.334v-4.596L35 25.403V35c0 .92-.747 1.667-1.667 1.667H6.667C5.747 36.667 5 35.92 5 35V5c0-.92.747-1.667 1.667-1.667h26.666Zm2.964 11.347 2.356 2.357L25.69 30l-2.36-.003.003-2.354L36.297 14.68ZM21.667 20v3.333h-8.334V20h8.334Zm5-6.667v3.334H13.333v-3.334h13.334Z" fill="#F4683F"/></g><defs><clipPath id="ma"><path fill="#fff" d="M0 0h40v40H0z"/></clipPath></defs></svg><svg fill="none" viewBox="0 0 29 20" id="youtube" xmlns="http://www.w3.org/2000/svg"><path fill-rule="evenodd" clip-rule="evenodd" d="M11.979.01C7.119.161 4.95.312 3.826.577a4.376 4.376 0 0 0-2.215 1.258C.944 2.52.64 3.11.421 4.14c-.562 2.645-.561 9.07.002 11.718.217 1.023.531 1.632 1.187 2.298a4.554 4.554 0 0 0 2.404 1.286c1.962.395 8.7.657 13.401.522 4.6-.132 6.942-.31 7.985-.607 1.394-.396 2.5-1.413 2.976-2.735.723-2.01.849-9.337.214-12.42-.228-1.106-.655-1.892-1.387-2.55A4.508 4.508 0 0 0 24.982.55c-.954-.19-3.012-.36-5.585-.463C17.957.03 13.01-.022 11.98.01Zm5.55 2.188c4.48.127 6.782.32 7.494.626.568.245.982.658 1.177 1.174.15.398.297 1.236.4 2.268.125 1.273.143 5.719.028 7.06-.134 1.56-.301 2.486-.525 2.905-.287.537-.863.95-1.53 1.097-1.587.349-8.368.596-12.877.47-3.645-.102-6.18-.268-7.179-.469-1.04-.21-1.653-.826-1.876-1.892-.5-2.383-.5-8.5 0-10.883.12-.578.323-.972.67-1.303.539-.515 1.038-.655 2.877-.805 3.045-.25 7.689-.351 11.34-.248ZM11.61 14.394l7.858-4.408-7.858-4.381v8.789Z" fill="#C0C2D7"/></svg></svg>