<?xml version="1.0" encoding="utf-8"?><svg viewBox="0 0 26 26" xmlns="http://www.w3.org/2000/svg" xmlns:xlink="http://www.w3.org/1999/xlink"><style>:root>svg{display:none}:root>svg:target{display:block}</style><svg fill="none" viewBox="0 0 12 8" id="chevron-down" xmlns="http://www.w3.org/2000/svg"><path d="M6.093 4.884 10.218.76l1.178 1.178-5.303 5.304L.79 1.937 1.968.76l4.125 4.125Z" fill="#fff"/></svg><svg fill="none" viewBox="0 0 26 26" id="favorite" xmlns="http://www.w3.org/2000/svg"><g clip-path="url(#ba)"><path d="M13 4.906a6.498 6.498 0 0 1 8.93.247 6.5 6.5 0 0 1 .255 8.923l-9.187 9.2-9.184-9.2A6.5 6.5 0 0 1 13 4.906Zm7.395 1.778a4.331 4.331 0 0 0-5.947-.166L13 7.816 11.555 6.52a4.332 4.332 0 0 0-5.952.167 4.333 4.333 0 0 0-.208 5.906L13 20.209l7.605-7.616a4.334 4.334 0 0 0-.209-5.909Z" fill="#fff"/></g><defs><clipPath id="ba"><path fill="#fff" d="M0 0h26v26H0z"/></clipPath></defs></svg><svg fill="none" viewBox="0 0 14 18" id="map-locator" xmlns="http://www.w3.org/2000/svg"><path d="M7 0A6.192 6.192 0 0 0 .808 6.192c0 2.607 3.6 8.615 5.31 11.322a1.046 1.046 0 0 0 1.765 0c1.71-2.709 5.309-8.715 5.309-11.322A6.192 6.192 0 0 0 7 0Zm0 9.973a3.502 3.502 0 1 1 0-7.004 3.502 3.502 0 0 1 0 7.004Z" fill="#F4683F"/></svg><svg fill="none" viewBox="0 0 20 20" id="phone-icon" xmlns="http://www.w3.org/2000/svg"><g clip-path="url(#da)"><path d="M17.5 13.683v2.947a.833.833 0 0 1-.775.832c-.364.025-.662.038-.892.038C8.47 17.5 2.5 11.53 2.5 4.167c0-.23.013-.528.038-.892A.833.833 0 0 1 3.37 2.5h2.947a.417.417 0 0 1 .415.375c.019.192.036.344.053.46.166 1.156.505 2.28 1.007 3.334a.38.38 0 0 1-.123.473l-.488.348c-.765.547-1.062 1.564-.568 2.364a10.874 10.874 0 0 0 3.534 3.534c.8.494 1.817.197 2.364-.568l.347-.485a.385.385 0 0 1 .477-.124c1.054.5 2.178.84 3.333 1.004.116.017.269.035.459.053a.417.417 0 0 1 .373.415Z" fill="#fff"/></g><defs><clipPath id="da"><path fill="#fff" d="M0 0h20v20H0z"/></clipPath></defs></svg><svg fill="none" viewBox="0 0 24 24" id="search-icon" xmlns="http://www.w3.org/2000/svg"><g clip-path="url(#ea)"><path d="m18.033 16.617 4.283 4.282-1.415 1.415-4.282-4.283A8.96 8.96 0 0 1 11.002 20c-4.968 0-9-4.032-9-9s4.032-9 9-9 9 4.032 9 9a8.96 8.96 0 0 1-1.969 5.617Zm-2.006-.742A6.977 6.977 0 0 0 18.002 11c0-3.868-3.133-7-7-7-3.868 0-7 3.132-7 7 0 3.867 3.132 7 7 7a6.977 6.977 0 0 0 4.875-1.975l.15-.15Z" fill="#fff"/></g><defs><clipPath id="ea"><path fill="#fff" d="M0 0h24v24H0z"/></clipPath></defs></svg></svg>