<?xml version="1.0" encoding="utf-8"?><svg viewBox="0 0 45 42" xmlns="http://www.w3.org/2000/svg" xmlns:xlink="http://www.w3.org/1999/xlink"><style>:root>svg{display:none}:root>svg:target{display:block}</style><svg fill="none" viewBox="0 0 17 24" id="bath-icon" xmlns="http://www.w3.org/2000/svg"><path fill-rule="evenodd" clip-rule="evenodd" d="M8.257.048a.646.646 0 0 1 .486 0c1.012.414 1.918 1.062 2.623 1.71.526.482.963.984 1.256 1.42a10.101 10.101 0 0 1 3.895-.103c.272.049.47.263.478.516.09 2.918-1.097 4.97-1.933 5.867.487 2.067-.126 3.638-1.15 4.75-.901.978-2.097 1.576-3.065 1.872v7.378c0 .3-.266.542-.595.542H6.747c-.328 0-.594-.243-.594-.542V16.08c-.968-.296-2.164-.894-3.065-1.872-1.024-1.112-1.637-2.683-1.15-4.75C1.102 8.56-.086 6.508.005 3.591c.008-.253.206-.467.478-.516 1.007-.182 2.558-.195 4.112.313.263-.429.637-.95 1.105-1.465C6.35 1.21 7.216.473 8.257.048ZM5.659 3.874c.666.468 1.134 1.235 1.356 2.169.06.25.102.514.126.791 1.19-1.645 2.623-2.64 4.053-3.214.085-.034.17-.067.255-.098a7.876 7.876 0 0 0-.925-1c-.573-.526-1.272-1.03-2.021-1.377-.717.345-1.36.89-1.89 1.472a8.848 8.848 0 0 0-.954 1.257Zm-.007 5.659c.38-1.326.4-2.43.202-3.26-.228-.96-.723-1.502-1.22-1.703-1.232-.5-2.519-.582-3.444-.495.046 2.468 1.1 4.11 1.69 4.719.786.119 1.768.355 2.772.739Zm-2.603.393c-.31 1.61.195 2.766.948 3.583.829.9 1.991 1.42 2.826 1.623h2.804c-.164-1.41-.967-2.487-2.042-3.305a9.163 9.163 0 0 0-1.824-1.059c-.943-.419-1.91-.692-2.712-.842Zm7.75 5.014c.732-.272 1.567-.74 2.204-1.43.773-.84 1.284-2.037.922-3.714-2.789-.24-4.46.8-5.164 1.536 1.043.908 1.841 2.097 2.038 3.608Zm-2.953-4.3c.965-1.023 3.066-2.235 6.335-1.91.598-.656 1.586-2.272 1.63-4.66-.986-.11-2.541-.097-4.14.543-1.78.714-3.687 2.236-4.915 5.403.372.185.739.393 1.09.624Zm1.812 5.577H7.342v1.324l2.316 1.542v-2.866Zm0 4.208-2.316-1.542v.029l2.316 2.366v-.853Zm0 2.48L7.342 20.54v2.376h2.316v-.01Z" fill="#F4683F"/></svg><svg fill="none" viewBox="0 0 23 17" id="bed-icon" xmlns="http://www.w3.org/2000/svg"><path fill-rule="evenodd" clip-rule="evenodd" d="M4.96.03A2.597 2.597 0 0 0 3.6.718a2.873 2.873 0 0 0-.62.994c-.097.285-.1.347-.114 2.847l-.015 2.556-.458.025c-.687.038-1.163.228-1.624.65a2.609 2.609 0 0 0-.665 1.016L0 9.102v3.735c0 3.703 0 3.736.093 3.858.166.22.323.305.56.305.235 0 .392-.086.559-.305.077-.103.095-.202.108-.608l.015-.485H21.648l.015.485c.013.406.03.505.108.608.167.22.324.305.56.305.236 0 .393-.086.56-.305.09-.122.092-.166.105-3.725.01-3.159.004-3.64-.06-3.921a2.34 2.34 0 0 0-.58-1.109c-.474-.516-1.015-.761-1.766-.8l-.458-.025-.015-2.556c-.014-2.5-.017-2.562-.114-2.847-.262-.767-.87-1.358-1.675-1.623C18.093.01 17.766.007 11.627 0c-3.55-.004-6.55.01-6.668.029Zm13.005 1.356c.172.05.3.13.455.283.362.357.358.318.358 3.071v2.388h-1.26c-.692 0-1.259-.01-1.259-.021 0-.012.05-.17.113-.352.102-.3.112-.399.112-1.07 0-.531-.02-.817-.071-1.013-.214-.82-.925-1.523-1.752-1.735-.395-.102-5.944-.102-6.338 0-.825.211-1.54.919-1.753 1.735-.05.196-.07.482-.07 1.013 0 .671.01.77.112 1.07.061.182.112.34.112.352 0 .011-.567.021-1.26.021H4.206V4.74c0-2.048.01-2.421.071-2.624.098-.323.37-.603.695-.713.237-.081.484-.084 6.501-.086 5.565-.001 6.281.006 6.493.069Zm-3.482 2.897c.231.103.463.331.567.559.067.145.083.294.084.803 0 .594-.005.636-.123.865-.138.268-.411.5-.676.572-.229.062-5.458.062-5.687 0-.265-.073-.538-.304-.676-.572-.118-.23-.124-.271-.123-.865.002-.702.047-.864.318-1.131.33-.326.188-.312 3.325-.312 2.626 0 2.822.005 2.991.08Zm6.374 4.222c.25.069.533.304.662.552.112.215.115.243.128 1.275l.014 1.055H1.322l.014-1.055c.013-1.026.016-1.06.126-1.27.128-.247.359-.449.613-.538.146-.051 1.67-.061 9.394-.063 6.219 0 9.275.013 9.388.044Zm.8 4.99v.776H1.326v-1.553h20.329v.777Z" fill="#F4683F"/></svg><svg fill="none" viewBox="0 0 40 40" id="benefit-icon" xmlns="http://www.w3.org/2000/svg"><g clip-path="url(#ca)"><path d="M36.667 28.337a10.003 10.003 0 0 1-7.855 9.766l-1.063-3.19a6.672 6.672 0 0 0 4.693-3.246h-4.108a3.333 3.333 0 0 1-3.333-3.334v-6.666a3.333 3.333 0 0 1 3.333-3.334h4.897a13.336 13.336 0 0 0-26.46 0h4.896a3.333 3.333 0 0 1 3.334 3.334v6.666a3.333 3.333 0 0 1-3.334 3.334h-5a3.333 3.333 0 0 1-3.333-3.334V20c0-9.205 7.462-16.667 16.667-16.667 9.205 0 16.666 7.462 16.666 16.667v8.337Zm-3.333-.004v-6.666h-5v6.666h5ZM6.667 21.667v6.666h5v-6.666h-5Z" fill="#F4683F"/></g><defs><clipPath id="ca"><path fill="#fff" d="M0 0h40v40H0z"/></clipPath></defs></svg><svg fill="none" viewBox="0 0 45 31" id="buffet-icon" xmlns="http://www.w3.org/2000/svg"><path fill-rule="evenodd" clip-rule="evenodd" d="M21.446.133c-1.355.356-2.514 1.58-2.82 2.975-.119.547-.06 1.446.128 1.972.076.211.125.397.11.413-.017.016-.341.102-.721.192-2.554.603-5.395 2.011-7.408 3.671a18.073 18.073 0 0 0-4.83 6.1c-.934 1.899-1.568 4.058-1.724 5.875l-.056.656H0l.047 1.272c.034.893.103 1.478.233 1.962.745 2.772 2.955 4.895 5.86 5.628.561.141 1.624.151 16.36.151h15.76l.746-.195c2.35-.614 4.23-2.159 5.24-4.305.484-1.03.653-1.805.706-3.24L45 21.986h-4.125l-.056-.656c-.276-3.205-1.907-6.986-4.14-9.593-2.54-2.97-5.84-5.039-9.521-5.974a18.931 18.931 0 0 1-1.028-.278c-.012-.012.04-.195.116-.406.189-.526.247-1.425.127-1.972-.478-2.19-2.732-3.552-4.927-2.975Zm1.67 2.622c.393.197.701.693.701 1.127 0 .637-.668 1.287-1.323 1.287-.399 0-.91-.313-1.125-.69-.233-.407-.236-.773-.01-1.21.325-.624 1.09-.848 1.758-.514Zm1.034 5.093c4.653.496 8.864 2.992 11.462 6.792.64.936 1.546 2.745 1.887 3.768.309.926.597 2.194.68 2.997l.061.582a67414.1 67414.1 0 0 0-31.48 0l.06-.582c.161-1.544.684-3.264 1.49-4.894 1.169-2.368 2.727-4.191 4.979-5.826.952-.69 3.08-1.762 4.25-2.14 2.098-.678 4.461-.927 6.61-.697Zm17.973 16.92c-.03.107-.198.486-.371.842-.641 1.314-2.082 2.407-3.58 2.716-.924.19-30.42.19-31.344 0-1.498-.309-2.939-1.402-3.58-2.716-.173-.356-.34-.735-.371-.841l-.055-.194h39.357l-.056.194Z" fill="#F4683F"/></svg><svg fill="none" viewBox="0 0 39 41" id="chef-icon" xmlns="http://www.w3.org/2000/svg"><path fill-rule="evenodd" clip-rule="evenodd" d="M18.387.027c-1.63.244-2.836.604-4 1.194-1.649.835-3.22 2.2-4.32 3.755l-.303.428-.984.045c-2.371.11-4.314.97-5.997 2.655C.26 10.63-.644 14.471.469 17.938c.464 1.444 1.13 2.54 2.256 3.711 1.091 1.136 2.071 1.775 3.466 2.263.383.133.832.267.997.296.166.03.362.07.436.092.127.036.134.417.137 6.54.001 3.577.032 6.746.07 7.043.176 1.435 1.217 2.654 2.543 2.98.74.182 17.512.182 18.251 0 1.326-.326 2.367-1.545 2.544-2.98.037-.297.068-3.466.07-7.043.002-6.123.01-6.504.136-6.54a5.85 5.85 0 0 1 .436-.092c.455-.08 1.635-.509 2.153-.781 1.263-.665 2.702-1.985 3.47-3.184 2.48-3.868 1.97-8.948-1.217-12.139C34.533 6.42 32.59 5.56 30.219 5.45l-.984-.045-.303-.428C27.197 2.525 24.622.82 21.733.21c-.71-.15-2.806-.265-3.346-.184Zm2.384 2.761c2.538.369 4.917 1.948 6.35 4.217.765 1.21.71 1.184 2.47 1.184 1.705 0 2.033.07 3.223.682 1.988 1.023 3.375 3.12 3.554 5.374.264 3.323-1.574 6.183-4.628 7.2-1.079.358-3.03.297-4.015-.128l-.254-.11.657-.77c1.183-1.386 1.924-2.707 2.464-4.393.233-.727.259-.88.196-1.176-.099-.455-.294-.716-.7-.932-.422-.226-.7-.228-1.132-.01-.395.2-.575.472-.788 1.19-.543 1.83-1.838 3.672-3.4 4.835-1.543 1.149-3.309 1.728-5.268 1.728-1.96 0-3.725-.579-5.268-1.728-1.563-1.163-2.858-3.004-3.4-4.834-.214-.72-.394-.991-.788-1.19-.432-.219-.71-.217-1.133.009-.405.216-.6.477-.699.932-.063.295-.038.449.195 1.176.54 1.686 1.282 3.007 2.464 4.393l.658.77-.255.11c-.985.425-2.936.486-4.014.127-2.583-.86-4.406-3.164-4.626-5.847-.118-1.438.104-2.614.724-3.85a6.435 6.435 0 0 1 2.827-2.876c1.19-.612 1.518-.681 3.223-.682 1.76 0 1.706.026 2.47-1.184.602-.953 1.573-1.997 2.425-2.606 1.095-.784 2.626-1.423 3.854-1.608.669-.1 1.932-.102 2.614-.003Zm-6.415 20.377c3.12 1.65 7.167 1.65 10.285.002l.374-.198.753.394a9.695 9.695 0 0 0 2.424.885l.443.092-.02 6.728-.021 6.728-.251.234-.25.234H10.906l-.25-.234-.251-.234-.021-6.728-.02-6.728.442-.092a9.366 9.366 0 0 0 2.412-.886c.394-.212.727-.388.739-.39.012-.004.191.084.398.193Z" fill="#F4683F"/></svg><svg fill="none" viewBox="0 0 12 8" id="chevron-down" xmlns="http://www.w3.org/2000/svg"><path d="M6.093 4.884 10.218.76l1.178 1.178-5.303 5.304L.79 1.937 1.968.76l4.125 4.125Z" fill="#fff"/></svg><svg fill="none" viewBox="0 0 10 17" id="chevron-next" xmlns="http://www.w3.org/2000/svg"><path d="M6.326 8.86.14 2.673 1.906.905 9.861 8.86l-7.955 7.956L.14 15.047 6.326 8.86Z" fill="#fff"/></svg><svg fill="none" viewBox="0 0 36 38" id="cocktail-icon" xmlns="http://www.w3.org/2000/svg"><path fill-rule="evenodd" clip-rule="evenodd" d="M27.3.077c-1.115.15-2.554.758-3.53 1.489-1.313.985-2.374 2.61-2.741 4.201l-.124.539H1.165S.578 6.16.157 6.829c-.42.668.132 1.267.155 1.303.024.037 3.105 3.857 6.848 8.491l6.806 8.425v4.587c.001 3.27-.024 4.687-.088 4.934-.114.44-.652.983-1.104 1.113-.224.065-1.162.091-3.266.091H6.557s-1.052 0-1.052 1.114C5.505 38 6.557 38 6.557 38h17.038s1.087 0 1.087-1.113c0-1.114-1.088-1.114-1.088-1.114h-2.922c-1.825 0-3.032-.03-3.215-.08-.372-.1-.876-.54-1.055-.922-.13-.277-.14-.61-.14-5.018l-.002-4.722 4.4-5.447c3.554-4.4 4.432-5.445 4.565-5.434.09.007.457.114.815.238.906.312 1.615.404 2.788.36.77-.03 1.147-.082 1.68-.236 2.633-.758 4.468-2.543 5.286-5.142.189-.6.205-.755.206-1.951.001-1.515-.108-2.027-.676-3.175-.424-.855-.686-1.228-1.33-1.89-1.747-1.8-4.16-2.62-6.694-2.277Zm2.75 2.398c1.798.553 3.19 2.028 3.599 3.817.184.803.119 1.94-.155 2.722-.722 2.058-2.573 3.414-4.792 3.51-.814.035-1.911-.12-2.016-.284-.024-.038.697-.985 1.602-2.105l1.646-2.036s.422-.788.116-1.344c-.306-.557-.979-.45-.979-.45h-5.795l.053-.24c.155-.711.774-1.726 1.436-2.356.453-.43 1.235-.926 1.809-1.146 1.003-.385 2.394-.42 3.476-.088Zm-3.644 6.373c-.144.173-.873 1.075-1.62 2.004-.748.929-1.384 1.689-1.415 1.689-.03 0-.242-.098-.47-.217-.955-.5-2.285-.623-3.356-.31-.858.25-1.492.65-2.304 1.457-.942.936-1.414 1.177-2.219 1.136-.796-.04-1.127-.224-2.103-1.169-.691-.668-.934-.851-1.475-1.111-1.373-.66-2.794-.66-4.141 0-.246.12-.476.201-.511.18-.048-.029-2.427-2.95-3.16-3.882-.06-.074 2.25-.093 11.482-.093h11.555l-.263.316ZM10.344 14.29c.254.116.675.454 1.224.982.915.881 1.51 1.234 2.475 1.47.736.179 1.933.112 2.626-.147.763-.284 1.487-.784 2.112-1.457.701-.756 1.278-1.06 2.004-1.055.506.003 1.09.162 1.09.296 0 .117-6.711 8.408-6.787 8.383-.035-.011-1.588-1.907-3.45-4.212L8.25 14.359l.194-.1c.497-.256 1.3-.243 1.899.032Z" fill="#F4683F"/></svg><svg fill="none" viewBox="0 0 38 37" id="confetti-icon" xmlns="http://www.w3.org/2000/svg"><path fill-rule="evenodd" clip-rule="evenodd" d="M34.398.148c-.389.243-.492.476-.657 1.478-.327 1.987-1.011 3.78-1.84 4.819l-.185.23-.19-.474c-.755-1.899-2.237-2.957-4.137-2.957-1.232 0-2.064.347-2.923 1.22-1.696 1.721-1.526 4.542.348 5.787.774.514 1.418.683 2.59.679.66-.002 1.196-.052 1.61-.15.34-.08.64-.124.666-.098.054.055-.142.81-.38 1.467-.23.63-.88 1.607-1.312 1.97-.422.355-.584.645-.584 1.045 0 .787.74 1.345 1.46 1.1.352-.119 1.257-1.016 1.683-1.67.848-1.296 1.353-2.806 1.498-4.475l.056-.65.74-.721c1.161-1.129 1.94-2.435 2.529-4.245.352-1.081.58-2.179.635-3.05.037-.594.021-.726-.112-.942-.302-.49-1.017-.663-1.495-.363ZM3.84.975c-1.321.275-2.425 1.359-2.77 2.719-.326 1.284.015 2.549.942 3.502 2.066 2.123 5.553.977 6.07-1.994C8.51 2.74 6.238.475 3.84.975Zm1.392 2.454a1.45 1.45 0 0 1 .496 1.823c-.25.54-1.008.868-1.568.678-.88-.298-1.229-1.285-.742-2.099.34-.568 1.275-.776 1.814-.402Zm23.189 2.38c.597.333.99.927 1.225 1.854l.119.467-.255.109c-.856.367-2.127.523-2.808.344-.853-.225-1.151-.565-1.15-1.312 0-1.393 1.566-2.191 2.869-1.463ZM14.607 6.987c-.39.198-3.71 3.606-3.832 3.933-.116.313-.104.671.03.931.062.121.946 1.071 1.964 2.112l1.851 1.892h.935l1.851-1.892c1.018-1.04 1.902-1.99 1.964-2.112.134-.26.145-.618.03-.931-.124-.334-3.447-3.74-3.84-3.936-.407-.202-.55-.202-.953.003Zm1.37 3.516.814.833-.85.876-.85.876-.854-.873-.852-.873.81-.836c.446-.46.846-.835.89-.835.043 0 .445.374.892.832Zm5.012 6.56c-.558.308-.771.938-.5 1.475.543 1.078 2.096.737 2.096-.46 0-.424-.156-.695-.567-.982-.318-.223-.664-.234-1.029-.033Zm-18.454.395c-1.043.554-.697 2.14.467 2.14.87 0 1.37-.83.977-1.622-.282-.568-.92-.797-1.444-.518Zm7.23 1.69c-.338.15-1.185 1.03-1.606 1.667-.76 1.151-1.26 2.616-1.443 4.231l-.097.858-.804.813c-.442.448-.947 1.034-1.121 1.302-1.063 1.637-1.933 4.33-1.954 6.048l-.008.677.293.277c.161.151.384.3.495.328.487.126 1.12-.205 1.295-.676.046-.124.143-.61.216-1.079.262-1.684.74-3.028 1.488-4.176l.472-.725.356.762c.29.619.47.877.96 1.378.88.901 1.794 1.296 3 1.296 1.62 0 3.03-.844 3.7-2.217 1.051-2.155.14-4.533-2.018-5.272-.922-.315-2.431-.293-3.787.057-.176.045-.182.032-.129-.268.102-.577.52-1.648.842-2.16a6.52 6.52 0 0 1 .775-.958c.552-.547.635-.701.635-1.173 0-.428-.269-.82-.686-.999-.323-.138-.55-.136-.874.009Zm23.302.685c-.131.085-1.049.992-2.04 2.018l-1.802 1.864v.386c0 .213.051.486.114.607.173.335 3.617 3.82 3.871 3.918.364.139.636.099 1.01-.149.193-.128 1.087-.998 1.986-1.932 1.338-1.39 1.653-1.761 1.735-2.042.183-.63.046-.832-1.924-2.848-.97-.991-1.863-1.842-1.985-1.89-.335-.13-.7-.103-.965.068Zm-9.045.982c-.366.229-.525.523-.519.956.006.42.168.697.573.98.33.23.668.23 1.063-.002.679-.398.77-1.206.204-1.788-.262-.27-.342-.305-.682-.305-.243 0-.48.059-.64.159Zm-5.177 1.209c-.364.375-.444.652-.315 1.095.267.917 1.282 1.14 1.9.417.193-.226.241-.356.241-.65 0-.725-.433-1.172-1.138-1.172-.341 0-.42.035-.688.31Zm-18.32.25c-.515.35-.676 1.015-.37 1.53.442.747 1.407.764 1.882.033.1-.154.18-.4.18-.558 0-.358-.266-.849-.554-1.024-.3-.181-.855-.172-1.138.02Zm33.908 2.754-.85.874-.833-.852-.832-.852.85-.877.851-.876.832.855.832.854-.85.874Zm-21.974 1.878c1.082.491.959 2.084-.21 2.721-.458.25-1.377.248-1.845-.002-.646-.346-1.235-1.277-1.353-2.14l-.04-.292.55-.178c1.122-.364 2.245-.406 2.898-.11Zm9.321 2.842c-1.394.39-2.414 1.56-2.635 3.027-.347 2.304 1.561 4.406 3.823 4.211 1.415-.121 2.67-1.127 3.142-2.517.195-.574.193-1.731-.003-2.321-.337-1.014-1.194-1.924-2.163-2.296-.627-.241-1.518-.284-2.164-.104Zm1.566 2.359c.66.315.89 1.32.457 1.998-.475.745-1.738.762-2.205.03-.368-.577-.306-1.337.147-1.803.424-.435.994-.515 1.601-.225Z" fill="#F4683F"/></svg><svg fill="none" viewBox="0 0 26 26" id="favorite" xmlns="http://www.w3.org/2000/svg"><g clip-path="url(#ja)"><path d="M13 4.906a6.498 6.498 0 0 1 8.93.247 6.5 6.5 0 0 1 .255 8.923l-9.187 9.2-9.184-9.2A6.5 6.5 0 0 1 13 4.906Zm7.395 1.778a4.331 4.331 0 0 0-5.947-.166L13 7.816 11.555 6.52a4.332 4.332 0 0 0-5.952.167 4.333 4.333 0 0 0-.208 5.906L13 20.209l7.605-7.616a4.334 4.334 0 0 0-.209-5.909Z" fill="#fff"/></g><defs><clipPath id="ja"><path fill="#fff" d="M0 0h26v26H0z"/></clipPath></defs></svg><svg fill="none" viewBox="0 0 27 26" id="instagram" xmlns="http://www.w3.org/2000/svg"><g clip-path="url(#ka)"><path d="M13.38 9.83a3.17 3.17 0 1 0 0 6.34 3.17 3.17 0 0 0 0-6.34Zm0-2.112a5.282 5.282 0 1 1 0 10.564 5.282 5.282 0 0 1 0-10.564Zm6.866-.264a1.32 1.32 0 1 1-2.641 0 1.32 1.32 0 0 1 2.641 0ZM13.38 4.549c-2.614 0-3.04.007-4.256.061-.828.04-1.384.15-1.9.351a3.05 3.05 0 0 0-1.14.743c-.33.32-.585.71-.744 1.14-.2.518-.312 1.073-.35 1.9-.055 1.166-.06 1.574-.06 4.256 0 2.613.006 3.04.06 4.256.04.827.15 1.384.35 1.898.18.46.39.79.742 1.141.356.355.686.567 1.14.743.522.201 1.078.313 1.902.351 1.166.055 1.574.062 4.256.062 2.613 0 3.04-.008 4.256-.062.826-.039 1.383-.15 1.898-.35.458-.178.79-.39 1.141-.74.356-.357.568-.688.744-1.142.2-.52.312-1.077.35-1.901.055-1.166.062-1.574.062-4.256 0-2.614-.008-3.04-.062-4.256-.039-.826-.15-1.384-.35-1.9a3.074 3.074 0 0 0-.743-1.14c-.32-.331-.71-.585-1.14-.744-.518-.2-1.074-.312-1.9-.35-1.166-.055-1.574-.061-4.256-.061Zm0-2.113c2.87 0 3.228.01 4.354.064 1.125.053 1.891.229 2.565.49a5.15 5.15 0 0 1 1.872 1.219 5.184 5.184 0 0 1 1.218 1.872c.26.673.438 1.44.491 2.565.05 1.126.063 1.484.063 4.354s-.01 3.228-.063 4.354c-.053 1.125-.23 1.891-.491 2.565a5.159 5.159 0 0 1-1.218 1.872 5.192 5.192 0 0 1-1.872 1.218c-.673.26-1.44.438-2.565.49-1.126.05-1.484.064-4.354.064s-3.228-.01-4.354-.063c-1.125-.053-1.891-.23-2.565-.491a5.165 5.165 0 0 1-1.872-1.218 5.18 5.18 0 0 1-1.218-1.872c-.262-.673-.438-1.44-.491-2.565-.05-1.126-.064-1.484-.064-4.354s.011-3.228.064-4.354c.053-1.127.229-1.891.491-2.565a5.155 5.155 0 0 1 1.218-1.872A5.173 5.173 0 0 1 6.461 2.99c.674-.262 1.439-.438 2.565-.491 1.126-.05 1.484-.064 4.354-.064Z" fill="#C0C2D7"/></g><defs><clipPath id="ka"><path fill="#fff" transform="translate(.705 .324)" d="M0 0h25.352v25.352H0z"/></clipPath></defs></svg><svg fill="none" viewBox="0 0 14 18" id="map-locator" xmlns="http://www.w3.org/2000/svg"><path d="M7 0A6.192 6.192 0 0 0 .808 6.192c0 2.607 3.6 8.615 5.31 11.322a1.046 1.046 0 0 0 1.765 0c1.71-2.709 5.309-8.715 5.309-11.322A6.192 6.192 0 0 0 7 0Zm0 9.973a3.502 3.502 0 1 1 0-7.004 3.502 3.502 0 0 1 0 7.004Z" fill="#F4683F"/></svg><svg fill="none" viewBox="0 0 34 38" id="microphone-icon" xmlns="http://www.w3.org/2000/svg"><path fill-rule="evenodd" clip-rule="evenodd" d="M6.742.083C4.15.525 1.992 2.079.853 4.323-.89 7.757.096 11.697 3.285 14.036c1.091.8 2.731 1.39 4.181 1.506l.672.053 8.775 7.412 8.775 7.411 1.083-1.032 1.082-1.033 1.7 1.655c1.167 1.138 1.752 1.763 1.869 2 .493.994.302 2.138-.494 2.958-.64.66-1.58.944-2.495.755-.27-.056-1.482-.634-3.582-1.71-3.951-2.023-4.433-2.255-5.486-2.644-1.4-.517-2.473-.794-4.088-1.053-1.3-.21-4.572-.192-5.902.03-1.812.303-3.35.75-4.904 1.423-.942.409-3.808 1.88-3.808 1.955 0 .083 1.004 1.916 1.049 1.916.018 0 .48-.233 1.028-.517 2.643-1.375 3.775-1.84 5.508-2.267 3.098-.762 6.503-.639 9.574.346 1.212.388 1.998.755 5.782 2.694 1.737.892 3.302 1.68 3.477 1.752.638.263 1.478.393 2.226.344 1.321-.088 2.293-.508 3.213-1.388.99-.947 1.487-2.133 1.48-3.527-.005-.905-.241-1.696-.723-2.42-.194-.293-.994-1.133-2.062-2.169l-1.745-1.69 1.065-1.029 1.066-1.028-7.719-8.49-7.718-8.49v-.391c0-.215-.053-.658-.117-.984-.595-3.022-2.895-5.398-5.96-6.157C9.153-.005 7.635-.07 6.742.083ZM9.57 2.389c.549.143 1.467.538 1.595.687.074.086-.628.798-3.875 3.926-2.181 2.102-3.99 3.821-4.022 3.821-.107 0-.672-1.23-.802-1.745-.187-.742-.17-1.985.037-2.733C3 4.552 4.49 3.05 6.352 2.468c.223-.07.57-.156.77-.19.525-.093 1.907-.03 2.448.111ZM13.3 5.386c.295.618.551 1.553.551 2.013v.34l-2.91 2.805C8.65 12.75 7.987 13.35 7.835 13.35c-.5-.003-1.67-.307-2.288-.596l-.665-.31L8.88 8.591c2.794-2.692 4.026-3.832 4.087-3.782.05.039.198.299.332.577Zm3.203 6.125 1.505 1.653-2.136 2.062c-1.175 1.134-2.16 2.053-2.191 2.043-.06-.02-1.706-1.387-2.786-2.315l-.683-.586 2.34-2.255c1.287-1.24 2.363-2.255 2.392-2.255.03 0 .73.743 1.559 1.653Zm7.535 8.29 4.413 4.854-1.42 1.362-1.42 1.362-5.072-4.282-5.072-4.282 2.026-1.953c1.114-1.074 2.05-1.944 2.079-1.934.029.01 2.039 2.203 4.466 4.873Z" fill="#F4683F"/></svg><svg fill="none" viewBox="0 0 20 20" id="people-icon" xmlns="http://www.w3.org/2000/svg"><g clip-path="url(#na)"><path d="M3.334 18.333a6.667 6.667 0 1 1 13.333 0h-1.666a5 5 0 0 0-10 0H3.334Zm6.667-7.5c-2.763 0-5-2.237-5-5 0-2.762 2.237-5 5-5 2.762 0 5 2.238 5 5 0 2.763-2.238 5-5 5Zm0-1.666A3.332 3.332 0 1 0 10 2.5a3.332 3.332 0 1 0 0 6.667Z" fill="#727488"/></g><defs><clipPath id="na"><path fill="#fff" d="M0 0h20v20H0z"/></clipPath></defs></svg><svg fill="none" viewBox="0 0 20 20" id="phone-icon" xmlns="http://www.w3.org/2000/svg"><g clip-path="url(#oa)"><path d="M17.5 13.683v2.947a.833.833 0 0 1-.775.832c-.364.025-.662.038-.892.038C8.47 17.5 2.5 11.53 2.5 4.167c0-.23.013-.528.038-.892A.833.833 0 0 1 3.37 2.5h2.947a.417.417 0 0 1 .415.375c.019.192.036.344.053.46.166 1.156.505 2.28 1.007 3.334a.38.38 0 0 1-.123.473l-.488.348c-.765.547-1.062 1.564-.568 2.364a10.874 10.874 0 0 0 3.534 3.534c.8.494 1.817.197 2.364-.568l.347-.485a.385.385 0 0 1 .477-.124c1.054.5 2.178.84 3.333 1.004.116.017.269.035.459.053a.417.417 0 0 1 .373.415Z" fill="#fff"/></g><defs><clipPath id="oa"><path fill="#fff" d="M0 0h20v20H0z"/></clipPath></defs></svg><svg fill="none" viewBox="0 0 21 19" id="pool-icon" xmlns="http://www.w3.org/2000/svg"><path fill-rule="evenodd" clip-rule="evenodd" d="m14.908.002-.13.014c-.42.04-.855.192-1.209.419a2.566 2.566 0 0 0-.916 1.007c-.17.33-.222.534-.253 1.004-.006.084-.012.621-.015 1.313l-.004 1.17H4.62v-.966c0-1.414.012-1.655.092-1.883a.82.82 0 0 1 .178-.294c.183-.204.411-.358.633-.429.123-.039.193-.05.351-.055.182-.005.275.007.433.058.205.067.386.171.535.31.216.203.308.402.378.822.036.218.08.342.161.448.105.139.26.204.504.215.162.007.253-.006.337-.046a.856.856 0 0 0 .249-.194c.113-.134.122-.17.116-.487a1.977 1.977 0 0 0-.105-.674C8.228.978 7.56.358 6.723.12A2.742 2.742 0 0 0 5.95.01a2.514 2.514 0 0 0-.576.036 2.74 2.74 0 0 0-1.577.938 2.798 2.798 0 0 0-.326.508c-.124.24-.153.329-.184.568-.058.45-.064 1.133-.05 5.734l.01 3.493.063.09c.07.1.158.186.252.244.092.058.146.072.305.078.181.006.275-.005.359-.046a.824.824 0 0 0 .326-.3.417.417 0 0 0 .033-.103c.014-.087.025-.372.036-.95.006-.292.012-.533.014-.537.003-.003 1.744-.006 3.87-.006h3.867l.005.245.015.658c.01.432.018.567.04.64.037.12.211.295.362.362.067.03.185.043.325.037.266-.012.4-.084.554-.294.04-.054.075-.104.078-.11.004-.006.017-2.056.028-4.555l.021-4.545.086-.158c.098-.181.177-.288.284-.385.35-.317.855-.426 1.318-.286.216.065.437.208.582.377.172.198.253.396.31.759.06.378.194.56.468.632.06.016.095.019.228.019.18 0 .248-.014.36-.07a.726.726 0 0 0 .297-.34c.021-.068.02-.425 0-.583-.073-.524-.312-.984-.72-1.38a2.718 2.718 0 0 0-1.588-.76 4.638 4.638 0 0 0-.517-.017Zm-2.525 7.34v1.111H4.62V6.231H12.383v1.111ZM7.168 12.77c-.11.01-.198.049-.326.142-.097.07-.159.124-.403.352-.11.103-.231.214-.27.247-.263.218-.712.419-1.196.535a4.458 4.458 0 0 1-2.32-.076 3.189 3.189 0 0 1-.922-.451 2.669 2.669 0 0 1-.416-.394c-.218-.264-.34-.33-.651-.352a.637.637 0 0 0-.134.004c-.125.022-.315.144-.416.268a.4.4 0 0 0-.107.212c-.014.087-.006.33.012.378.058.157.361.496.685.766.51.427 1.035.693 1.73.877.528.14.905.185 1.562.185.46 0 .76-.025 1.045-.085.745-.157 1.27-.366 1.85-.735.302-.191.331-.202.426-.156.031.015.092.053.136.084.343.245.686.42 1.14.585.426.154.825.242 1.283.285.238.022 1.01.022 1.249 0 .302-.028.476-.057.75-.124a4.794 4.794 0 0 0 1.6-.698 2.79 2.79 0 0 1 .208-.131c.095-.048.11-.042.413.148.212.134.331.201.513.29.949.47 2.127.65 3.243.495.761-.106 1.482-.36 2.043-.72.417-.268.931-.761 1.07-1.026.028-.056.039-.147.034-.298-.006-.155-.016-.197-.07-.278a.71.71 0 0 0-.417-.305.94.94 0 0 0-.379 0c-.14.037-.199.079-.408.292-.496.505-.788.693-1.355.873-.282.09-.574.153-.87.187-.168.019-.605.026-.778.013a4.053 4.053 0 0 1-1.471-.39c-.273-.13-.367-.2-.718-.53-.426-.399-.541-.47-.763-.47-.229 0-.332.066-.824.527-.308.288-.4.354-.684.49-.597.283-.988.364-1.775.364-.486 0-.818-.035-1.114-.118a4.07 4.07 0 0 1-.908-.394c-.121-.078-.21-.153-.454-.382a4.084 4.084 0 0 0-.386-.34c-.163-.122-.288-.161-.457-.146Zm-6.63 3.533c-.158.024-.359.164-.468.328-.063.093-.066.109-.066.319 0 .18 0 .182.024.233.119.246.564.689 1 .993.215.15.506.308.77.418.337.14.844.28 1.214.335.42.063 1.054.08 1.535.043.227-.018.336-.033.542-.078a5.23 5.23 0 0 0 1.802-.724c.188-.12.325-.174.399-.157.038.008.022-.001.208.119a5.4 5.4 0 0 0 1.273.618c.502.158 1.074.236 1.728.236.924 0 1.686-.16 2.374-.495.193-.093.305-.158.563-.322.218-.14.293-.182.325-.182.042 0 .1.029.257.127.44.275.703.41 1.061.542 1.304.482 2.849.457 4.113-.066a4.05 4.05 0 0 0 1.364-.898c.155-.151.276-.29.36-.41.078-.116.08-.122.08-.332 0-.211-.002-.225-.067-.322a.781.781 0 0 0-.363-.29.604.604 0 0 0-.277-.042c-.219.01-.386.105-.586.332a2.766 2.766 0 0 1-.664.56c-.434.255-.93.414-1.508.483-.161.019-.633.026-.81.013a4.119 4.119 0 0 1-1.528-.414c-.227-.116-.344-.205-.681-.523-.288-.272-.43-.38-.564-.428a.442.442 0 0 0-.174-.02.456.456 0 0 0-.179.02c-.136.045-.269.146-.587.446-.37.35-.48.429-.808.577-.49.222-.797.297-1.32.325-.22.011-.755.006-.929-.01-.443-.039-.76-.13-1.222-.351-.292-.14-.384-.207-.739-.542-.439-.414-.545-.477-.786-.468a.441.441 0 0 0-.157.026c-.138.052-.271.152-.535.402-.375.356-.487.44-.747.568-1.067.52-2.485.533-3.56.031a2.483 2.483 0 0 1-.896-.677c-.18-.222-.307-.302-.52-.333a1.068 1.068 0 0 0-.25-.01Z" fill="#F4683F"/></svg><svg fill="none" viewBox="0 0 40 40" id="rating-icon" xmlns="http://www.w3.org/2000/svg"><g clip-path="url(#qa)"><path d="m20 30.433-11.755 6.58L10.87 23.8.98 14.653l13.378-1.586L20 .833l5.643 12.234 13.379 1.586L29.13 23.8l2.625 13.213L20 30.433Zm0-3.82 7.078 3.962-1.581-7.955 5.955-5.508-8.055-.955L20 8.792l-3.396 7.366-8.055.954 5.955 5.508-1.582 7.955L20 26.613Z" fill="#F4683F"/></g><defs><clipPath id="qa"><path fill="#fff" d="M0 0h40v40H0z"/></clipPath></defs></svg><svg fill="none" viewBox="0 0 24 24" id="search-icon" xmlns="http://www.w3.org/2000/svg"><g clip-path="url(#ra)"><path d="m18.033 16.617 4.283 4.282-1.415 1.415-4.282-4.283A8.96 8.96 0 0 1 11.002 20c-4.968 0-9-4.032-9-9s4.032-9 9-9 9 4.032 9 9a8.96 8.96 0 0 1-1.969 5.617Zm-2.006-.742A6.977 6.977 0 0 0 18.002 11c0-3.868-3.133-7-7-7-3.868 0-7 3.132-7 7 0 3.867 3.132 7 7 7a6.977 6.977 0 0 0 4.875-1.975l.15-.15Z" fill="#fff"/></g><defs><clipPath id="ra"><path fill="#fff" d="M0 0h24v24H0z"/></clipPath></defs></svg><svg fill="none" viewBox="0 0 40 40" id="support-icon" xmlns="http://www.w3.org/2000/svg"><g clip-path="url(#sa)"><path d="m29.734 26.098.294.295.296-.295a3.753 3.753 0 0 1 5.304 0 3.75 3.75 0 0 1 0 5.304L30.028 37l-5.597-5.598a3.75 3.75 0 0 1 5.303-5.304ZM20 23.333v3.334a10 10 0 0 0-10 10H6.666A13.334 13.334 0 0 1 19.583 23.34l.416-.007Zm0-21.666c5.525 0 10 4.475 10 10a9.996 9.996 0 0 1-9.625 9.993l-.375.007c-5.525 0-10-4.475-10-10a9.997 9.997 0 0 1 9.625-9.994L20 1.667ZM20 5a6.665 6.665 0 0 0-6.666 6.667 6.665 6.665 0 0 0 6.666 6.666 6.665 6.665 0 0 0 6.667-6.666A6.665 6.665 0 0 0 19.999 5Z" fill="#F4683F"/></g><defs><clipPath id="sa"><path fill="#fff" d="M0 0h40v40H0z"/></clipPath></defs></svg><svg fill="none" viewBox="0 0 20 18" id="telegram" xmlns="http://www.w3.org/2000/svg"><path fill-rule="evenodd" clip-rule="evenodd" d="M18.926.056c-.107.03-2.12.843-4.473 1.805L5.467 5.536C2.877 6.596.66 7.513.54 7.576c-.237.123-.489.384-.528.546-.065.27.117.612.438.826.216.145 4.561 1.694 4.67 1.666.037-.01 2.62-1.708 5.74-3.774s5.723-3.774 5.782-3.796c.151-.055.353-.027.403.056.111.185.32-.019-6.822 6.673-2.206 2.067-2.365 2.225-2.303 2.286a542.97 542.97 0 0 0 3.66 2.933c2.684 2.14 3.644 2.884 3.79 2.937.284.103.62.094.86-.023.184-.09.469-.366.56-.543C16.835 17.276 20 .683 20 .545c-.002-.171-.143-.412-.283-.481-.166-.082-.515-.086-.79-.008Z" fill="#C0C2D7"/></svg><svg fill="none" viewBox="0 0 19 19" id="tennis-icon" xmlns="http://www.w3.org/2000/svg"><path fill-rule="evenodd" clip-rule="evenodd" d="M8.955.05a3.296 3.296 0 0 0-.413.112c-.09.034-1.802.91-3.803 1.945C1.147 3.966 1.098 3.993.77 4.287c-.37.332-.589.675-.699 1.096-.094.359-.095 7.886-.002 8.243.111.423.334.773.702 1.103.327.294.377.321 3.979 2.187 2.257 1.168 3.762 1.926 3.947 1.985.258.084.37.097.796.099.641.002.894-.07 1.707-.49.334-.172 1.984-1.026 3.666-1.898 3.006-1.558 3.065-1.59 3.39-1.883.233-.21.37-.372.468-.55.296-.547.276-.202.276-4.653 0-4.407.015-4.14-.26-4.653a2.727 2.727 0 0 0-.81-.86c-.29-.18-7.142-3.726-7.383-3.823A2.97 2.97 0 0 0 8.955.05Zm.939 1.11c.241.066 2.816 1.402 2.773 1.44-.051.045-3.118 1.631-3.153 1.631-.035 0-3.1-1.586-3.153-1.632-.04-.033 2.579-1.395 2.78-1.446.212-.053.54-.05.753.007Zm-3.15 2.936c.806.419 1.47.775 1.476.792.005.017-.698.397-1.562.844-1.36.703-1.585.808-1.664.775-.116-.047-3.056-1.57-3.093-1.602-.015-.013.69-.395 1.567-.848 1.528-.791 1.598-.823 1.701-.774.06.028.768.393 1.574.813Zm8.836-.032c.866.45 1.562.828 1.547.841-.041.035-2.956 1.546-3.08 1.596-.093.039-.236-.027-1.676-.77-.865-.447-1.569-.826-1.564-.842.012-.036 3.14-1.663 3.174-1.65.014.004.733.375 1.6.825Zm-4.46 2.303c.867.45 1.575.826 1.574.836-.002.03-3.124 1.636-3.178 1.636-.052 0-3.051-1.544-3.131-1.612-.038-.031.104-.121.578-.368l1.58-.823c.522-.274.962-.495.976-.492.014.004.735.374 1.601.823Zm-8.148.39 1.457.756v3.327l-.713-.37-1.59-.824-.878-.454V7.525L1.246 5.86l.134.07c.074.04.79.412 1.591.828Zm14.808.772v1.663l-.692.358-1.591.825-.9.467V7.515l1.582-.823c.87-.452 1.585-.823 1.591-.824.006-.001.01.746.01 1.661ZM7.314 9.006l1.578.818v1.665l.001 1.665-.155-.079c-.085-.043-.806-.416-1.601-.83l-1.447-.75-.01-1.666c-.007-.916.004-1.66.023-1.653.018.007.744.38 1.611.83Zm5.992 2.493c-.043.036-2.78 1.466-3.08 1.609l-.093.044.002-1.664.001-1.664 1.6-.827 1.6-.827.012 1.642c.008 1.284 0 1.653-.042 1.687Zm-9.57.27.693.358v3.332l-.134-.073c-.074-.04-.646-.336-1.271-.659-.625-.322-1.212-.64-1.305-.707a1.432 1.432 0 0 1-.31-.357l-.142-.235-.012-1.477-.012-1.476.9.468 1.594.826Zm14.036.507-.012 1.152-.142.235c-.078.13-.218.29-.31.357-.135.098-.903.506-2.68 1.421-.017.01-.03-.733-.03-1.649v-1.665l1.581-.819 1.58-.818.013.317c.007.174.007.835 0 1.47Zm-10.45 1.351 1.55.809.012 1.664c.006.952-.005 1.658-.026 1.65-.02-.006-.746-.38-1.612-.83l-1.575-.817-.001-1.644c0-1.292.01-1.644.051-1.642.029.001.75.366 1.602.81Zm6.036.833v1.645l-1.576.817c-.867.449-1.592.822-1.613.829-.02.007-.032-.692-.026-1.652l.011-1.665 1.55-.806c.853-.444 1.573-.809 1.602-.81.04-.002.052.35.052 1.642Z" fill="#F4683F"/></svg><svg fill="none" viewBox="0 0 34 42" id="transfer-icon" xmlns="http://www.w3.org/2000/svg"><path fill-rule="evenodd" clip-rule="evenodd" d="M13.153.003C8.545.025 4.61.08 3.792.132c-.24.015-.284.023-.506.095-.292.094-.56.204-.759.312C1.648 1.017.797 1.94.415 2.83c-.164.382-.297.858-.329 1.175-.031.32-.053 1.292-.07 3.18-.022 2.486-.022 4.742.002 15.798l.02 9.358.164.362c.173.384.278.583.434.819.212.323.52.664.77.854.068.052.27.176.45.276.18.1.334.189.342.197.008.008.026.674.04 1.481.051 2.966.052 2.973.312 3.546.218.48.473.847.816 1.175.311.299.5.424 1.115.74l.408.21h3.967l.393-.197c.216-.109.459-.238.54-.287.627-.38 1.096-.922 1.425-1.649.248-.547.262-.688.304-3.055.01-.542.022-1.15.028-1.351l.01-.367h10.89l.01.367c.007.201.023.976.038 1.722.041 2.144.04 2.135.361 2.788.308.627.621 1.021 1.089 1.371.273.204.657.417.958.53.289.11.65.127 2.655.128h1.554l.392-.202c.636-.326.831-.456 1.143-.756.384-.37.69-.84.9-1.381.157-.404.173-.632.218-3.287.014-.83.03-1.514.034-1.522.005-.007.139-.085.299-.173.464-.255.623-.375.885-.663.32-.35.557-.73.811-1.293l.173-.383.021-10.48c.03-14.119.011-17.513-.097-18.049A4.98 4.98 0 0 0 32.876 1.7 5.178 5.178 0 0 0 31.703.675a5.798 5.798 0 0 0-.795-.39 2.738 2.738 0 0 0-.865-.189c-.412-.023-1.645-.05-3.304-.07C25.381.01 15.378-.007 13.153.003ZM24.04 2.652c2.297.008 4.407.023 4.687.033 1.072.038 1.338.08 1.674.263.582.318.904.821 1.015 1.586.047.324.061.684.061 1.558v.859H2.52l.01-1.006c.01-.986.022-1.216.074-1.52.057-.33.187-.665.343-.882.088-.122.304-.335.443-.437.052-.038.234-.156.403-.262l.309-.192 1.94-.005c5.052-.011 14.235-.009 18 .005Zm7.438 11.412v4.472H2.524V9.592h28.954v4.472Zm-.001 11.003c0 3.857-.016 5.66-.051 6.185-.028.407-.057.561-.139.728-.13.265-.292.34-.839.384-.854.07-3.522.087-13.448.087-11.21 0-13.219-.018-13.8-.129-.385-.073-.54-.275-.599-.779-.056-.49-.064-1.056-.073-5.708l-.008-4.64h28.958l-.001 3.872Zm-23.648.461c-.435.079-.758.342-.965.784-.089.19-.125.336-.126.511-.003.638.629 1.308 1.242 1.318a.944.944 0 0 0 .485-.118c.54-.259.889-.876.787-1.393a1.575 1.575 0 0 0-.445-.79 1.438 1.438 0 0 0-.533-.286 1.298 1.298 0 0 0-.445-.026Zm17.98.001a1.25 1.25 0 0 0-.61.305c-.282.265-.467.657-.467.99 0 .444.323.967.712 1.154.342.165.6.2.854.115.482-.16.883-.635.959-1.135.054-.357-.13-.804-.455-1.113-.254-.241-.67-.373-.992-.316ZM8.97 36.721c-.005 1.038-.015 1.67-.027 1.746-.097.619-.33.836-.979.912-.263.031-1.915.031-2.174 0-.342-.04-.54-.115-.695-.262-.168-.158-.247-.368-.288-.769-.021-.2-.047-3.18-.028-3.228.009-.023.25-.026 2.105-.026h2.094L8.97 36.72Zm20.25-.125c0 1.528-.01 1.788-.07 2.063-.082.361-.298.586-.646.67-.255.062-.457.072-1.384.072-.954 0-1.145-.01-1.4-.079-.354-.095-.55-.308-.625-.68-.057-.282-.068-.604-.068-2.094v-1.454l2.097.004 2.097.004v1.494Z" fill="#F4683F"/></svg><svg fill="none" viewBox="0 0 24 23" id="whatsapp" xmlns="http://www.w3.org/2000/svg"><path fill-rule="evenodd" clip-rule="evenodd" d="M11.073.069C5.756.722 1.577 4.96 1.027 10.259c-.082.785-.032 2.272.1 3.022.21 1.188.557 2.234 1.097 3.302l.272.537-.809 2.934C1.243 21.668.886 22.994.895 23c.008.006 1.362-.342 3.009-.774 2.396-.63 3.017-.777 3.114-.74.066.025.38.163.7.306 1.034.467 2.121.776 3.265.93.794.106 2.19.106 2.962-.002 2.538-.353 4.805-1.468 6.592-3.242a10.776 10.776 0 0 0 2.147-2.933 11.896 11.896 0 0 0 1.119-3.378c.122-.702.122-2.766 0-3.502a11.18 11.18 0 0 0-1.076-3.335C21.168 3.207 18.29.98 14.85.236c-1.072-.232-2.672-.303-3.777-.167Zm3.017 1.986c1.385.254 2.533.714 3.67 1.469 1.938 1.288 3.366 3.29 3.93 5.51.414 1.63.382 3.482-.089 5.05a9.56 9.56 0 0 1-4.948 5.822c-1.38.67-2.656.963-4.204.963-1.775 0-3.348-.428-4.953-1.348l-.27-.155-1.778.464c-.977.255-1.784.457-1.793.448-.009-.01.192-.77.446-1.69.254-.92.464-1.706.466-1.747.002-.041-.123-.28-.278-.53-2.277-3.684-1.68-8.54 1.427-11.613C7.26 3.17 9.218 2.231 11.41 1.965c.592-.072 2.069-.023 2.68.09ZM7.942 6.24c-.28.138-.79.736-1.003 1.177-.419.866-.41 1.957.023 2.968.533 1.241 1.928 3.004 3.304 4.177.965.822 1.77 1.303 2.955 1.765 1.21.472 1.442.527 2.245.526.632 0 .732-.012 1.025-.122.483-.18.844-.409 1.203-.76.278-.272.335-.358.426-.647.113-.362.178-.944.128-1.145-.027-.105-.163-.19-.85-.532-1.256-.625-1.762-.84-1.978-.84-.176 0-.206.02-.42.3-.487.636-.934 1.128-1.05 1.158-.14.034-.414-.065-1.048-.382a7.418 7.418 0 0 1-2.582-2.112c-.391-.498-.744-1.066-.744-1.198 0-.057.182-.339.404-.626.434-.564.562-.774.562-.93 0-.054-.095-.32-.21-.59-.115-.27-.347-.826-.516-1.235-.21-.507-.356-.793-.462-.9L9.2 6.139h-.524c-.44 0-.558.017-.734.103Z" fill="#C0C2D7"/></svg><svg fill="none" viewBox="0 0 40 40" id="work-icon" xmlns="http://www.w3.org/2000/svg"><g clip-path="url(#xa)"><path d="M33.333 3.333C34.253 3.333 35 4.08 35 5v6.262l-3.333 3.333V6.667H8.333v26.666h23.334v-4.596L35 25.403V35c0 .92-.747 1.667-1.667 1.667H6.667C5.747 36.667 5 35.92 5 35V5c0-.92.747-1.667 1.667-1.667h26.666Zm2.964 11.347 2.356 2.357L25.69 30l-2.36-.003.003-2.354L36.297 14.68ZM21.667 20v3.333h-8.334V20h8.334Zm5-6.667v3.334H13.333v-3.334h13.334Z" fill="#F4683F"/></g><defs><clipPath id="xa"><path fill="#fff" d="M0 0h40v40H0z"/></clipPath></defs></svg><svg fill="none" viewBox="0 0 29 20" id="youtube" xmlns="http://www.w3.org/2000/svg"><path fill-rule="evenodd" clip-rule="evenodd" d="M11.979.01C7.119.161 4.95.312 3.826.577a4.376 4.376 0 0 0-2.215 1.258C.944 2.52.64 3.11.421 4.14c-.562 2.645-.561 9.07.002 11.718.217 1.023.531 1.632 1.187 2.298a4.554 4.554 0 0 0 2.404 1.286c1.962.395 8.7.657 13.401.522 4.6-.132 6.942-.31 7.985-.607 1.394-.396 2.5-1.413 2.976-2.735.723-2.01.849-9.337.214-12.42-.228-1.106-.655-1.892-1.387-2.55A4.508 4.508 0 0 0 24.982.55c-.954-.19-3.012-.36-5.585-.463C17.957.03 13.01-.022 11.98.01Zm5.55 2.188c4.48.127 6.782.32 7.494.626.568.245.982.658 1.177 1.174.15.398.297 1.236.4 2.268.125 1.273.143 5.719.028 7.06-.134 1.56-.301 2.486-.525 2.905-.287.537-.863.95-1.53 1.097-1.587.349-8.368.596-12.877.47-3.645-.102-6.18-.268-7.179-.469-1.04-.21-1.653-.826-1.876-1.892-.5-2.383-.5-8.5 0-10.883.12-.578.323-.972.67-1.303.539-.515 1.038-.655 2.877-.805 3.045-.25 7.689-.351 11.34-.248ZM11.61 14.394l7.858-4.408-7.858-4.381v8.789Z" fill="#C0C2D7"/></svg></svg>