<svg width="46" height="56" viewBox="0 0 46 56" fill="none" xmlns="http://www.w3.org/2000/svg">
<path fill-rule="evenodd" clip-rule="evenodd" d="M39.2635 39.0323C48.2455 30.1031 48.2455 15.6261 39.2635 6.69688C30.2814 -2.23229 15.7186 -2.23229 6.73654 6.69688C-2.24551 15.6261 -2.24551 30.1031 6.73654 39.0323L6.73649 39.0323L22.9999 55.2L39.2393 39.0563C39.2473 39.0483 39.2554 39.0403 39.2635 39.0323Z" fill="#F4683F"/>
<path d="M23.0005 7.96191C31.257 7.91316 37.9503 14.567 37.9503 22.8236C37.9503 31.0803 31.257 37.8132 23.0005 37.8619C14.744 37.9107 8.05078 31.2569 8.05078 23.0002C8.05078 14.7435 14.744 8.01067 23.0005 7.96191Z" fill="white"/>
</svg>
