<svg width="30" height="36" viewBox="0 0 30 36" fill="none" xmlns="http://www.w3.org/2000/svg">
<path d="M24.9016 24.7466L24.9016 24.7467L24.8868 24.7613L24.8858 24.7623L15 34.5899L6.24971 25.8912L5.09841 24.7466C-0.366138 19.3143 -0.366138 10.5091 5.09841 5.07672C10.5662 -0.358908 19.4338 -0.358908 24.9016 5.07672C30.3661 10.5091 30.3661 19.3143 24.9016 24.7466Z" fill="white" stroke="#F4683F" stroke-width="2"/>
<path d="M14.9998 5.19218C20.3845 5.16038 24.7497 9.49983 24.7497 14.8846C24.7497 20.2694 20.3845 24.6604 14.9998 24.6922C9.61515 24.724 5.25 20.3845 5.25 14.9998C5.25 9.61498 9.61515 5.22398 14.9998 5.19218Z" fill="white"/>
</svg>
