<?xml version="1.0" standalone="no"?>
<!DOCTYPE svg PUBLIC "-//W3C//DTD SVG 20010904//EN"
 "http://www.w3.org/TR/2001/REC-SVG-20010904/DTD/svg10.dtd">
<svg version="1.0" xmlns="http://www.w3.org/2000/svg"
 width="656.000000pt" height="656.000000pt" viewBox="0 0 656.000000 656.000000"
 preserveAspectRatio="xMidYMid meet">
<metadata>
Created by potrace 1.14, written by Peter Selinger 2001-2017
</metadata>
<g transform="translate(0.000000,656.000000) scale(0.100000,-0.100000)"
fill="#000000" stroke="none">
<path d="M3129 6315 c-2 -1 -24 -6 -49 -9 -49 -7 -62 -9 -131 -25 -89 -20
-276 -94 -290 -114 -3 -5 -10 -8 -15 -8 -13 0 -136 -75 -162 -99 -12 -11 -24
-20 -27 -20 -3 0 -11 -5 -18 -10 -7 -6 -43 -34 -82 -63 -38 -28 -71 -55 -73
-59 -2 -4 -10 -8 -17 -8 -7 0 -15 -3 -17 -7 -1 -5 -30 -28 -63 -52 -33 -25
-61 -48 -63 -53 -2 -4 -10 -8 -17 -8 -7 0 -15 -4 -17 -8 -1 -4 -77 -63 -168
-130 -91 -67 -175 -131 -186 -142 -12 -11 -26 -20 -32 -20 -6 0 -12 -4 -14 -8
-1 -5 -34 -31 -73 -60 -38 -28 -74 -55 -80 -60 -5 -4 -206 -155 -445 -334
-456 -341 -451 -338 -541 -423 -90 -85 -249 -279 -249 -305 0 -5 -4 -10 -9
-10 -5 0 -14 -13 -21 -30 -7 -16 -15 -30 -19 -30 -4 0 -13 -16 -20 -35 -7 -19
-17 -35 -22 -35 -5 0 -9 -5 -9 -11 0 -10 -13 -40 -65 -154 -24 -51 -73 -201
-81 -245 -3 -14 -7 -33 -10 -42 -8 -26 -15 -60 -19 -98 -3 -19 -8 -55 -12 -80
-5 -25 -8 -675 -8 -1445 l0 -1400 24 -65 c13 -36 36 -84 52 -108 16 -24 29
-45 29 -48 0 -12 96 -98 143 -128 87 -55 161 -78 267 -82 181 -7 333 60 445
196 45 55 95 146 97 177 0 2 6 26 14 55 11 44 14 280 14 1398 0 740 3 1359 6
1375 22 126 88 260 166 339 24 23 72 64 108 90 36 26 76 56 90 67 114 90 181
139 189 139 5 0 11 4 13 9 2 4 50 44 108 87 58 43 110 82 115 87 17 14 160
121 189 142 16 11 40 30 55 41 14 12 148 113 296 224 247 186 308 232 342 260
77 63 242 138 338 155 173 30 366 1 513 -78 48 -25 429 -305 687 -505 6 -4
109 -82 230 -172 121 -91 222 -167 225 -170 3 -3 68 -52 145 -110 77 -58 142
-108 143 -112 2 -5 8 -8 14 -8 5 0 15 -6 22 -12 7 -7 25 -22 41 -33 68 -48
145 -117 166 -147 13 -18 26 -35 30 -38 9 -6 61 -122 80 -175 20 -60 22 -1672
2 -1760 -50 -216 -219 -377 -439 -420 -16 -3 -540 -6 -1164 -6 -887 0 -1148
-3 -1195 -13 -200 -43 -354 -186 -411 -381 -32 -108 -26 -250 14 -348 7 -16
12 -30 12 -33 0 -3 16 -31 36 -62 39 -61 139 -162 161 -162 7 0 13 -4 13 -9 0
-17 144 -69 210 -77 77 -9 2543 -9 2645 0 94 8 130 15 230 41 74 20 146 45
163 58 6 5 12 7 12 3 0 -6 191 92 200 103 3 3 32 24 65 46 77 51 248 223 300
300 22 33 43 62 46 65 12 9 85 153 116 230 28 68 58 167 69 228 2 12 6 34 9
50 3 15 8 56 12 92 8 80 8 1938 0 2035 -20 227 -86 447 -195 650 -122 228
-263 389 -496 567 -66 51 -128 98 -136 105 -8 7 -51 39 -95 72 -44 33 -84 64
-90 69 -5 4 -75 57 -155 117 -80 60 -147 112 -150 115 -3 3 -86 66 -185 140
-99 74 -203 153 -231 175 -28 22 -61 47 -74 55 -12 8 -28 20 -34 25 -6 6 -56
44 -111 85 -55 41 -106 80 -113 85 -7 6 -21 17 -31 25 -10 8 -25 20 -33 25
-39 25 -293 220 -296 227 -2 4 -8 8 -14 8 -5 0 -37 20 -71 44 -88 62 -282 155
-357 171 -8 2 -15 4 -15 5 0 2 -95 23 -170 36 -34 7 -321 15 -326 9z"/>
<path d="M3209 3436 c-2 -2 -23 -6 -46 -10 -51 -7 -159 -55 -210 -93 -127 -96
-212 -241 -228 -389 -8 -65 -8 -64 -6 -114 2 -64 3 -85 2 -100 0 -8 0 -51 0
-95 1 -44 0 -91 -1 -105 -1 -14 -1 -32 -1 -40 2 -26 1 -54 -3 -75 -1 -11 0
-31 4 -45 4 -14 4 -34 0 -45 -4 -11 -4 -32 1 -47 4 -16 3 -30 -2 -34 -5 -3 -7
-9 -5 -13 3 -4 8 -38 11 -76 7 -81 37 -172 77 -233 15 -24 28 -46 28 -49 0
-21 141 -136 203 -166 164 -80 330 -80 493 -1 177 86 303 274 307 456 1 38 6
68 10 68 5 0 5 4 2 10 -6 9 -9 94 -5 115 1 6 2 14 0 20 -5 28 -4 95 2 95 4 0
5 6 2 14 -8 21 -10 106 -2 106 4 0 3 12 -1 28 -4 15 -4 39 0 55 4 15 4 27 1
27 -4 0 -6 19 -4 42 4 59 4 52 -2 160 -3 54 -9 106 -15 115 -5 10 -9 21 -10
26 -1 4 -2 9 -2 12 -1 3 -2 8 -3 13 -4 22 -60 123 -81 146 -14 15 -25 29 -25
32 0 8 -62 64 -105 93 -89 62 -177 91 -291 97 -50 2 -93 2 -95 0z"/>
</g>
</svg>
